<svg xmlns="http://www.w3.org/2000/svg"><defs><linearGradient id="instagram-SVGID_1_" gradientUnits="userSpaceOnUse" x1="275.517" y1="4.57" x2="275.517" y2="549.72" gradientTransform="matrix(1 0 0 -1 0 554)"> <stop offset="0"/> <stop offset="0.3"/> <stop offset="0.6"/> <stop offset="1"/> </linearGradient><linearGradient id="instagram-SVGID_2_" gradientUnits="userSpaceOnUse" x1="275.517" y1="4.57" x2="275.517" y2="549.72" gradientTransform="matrix(1 0 0 -1 0 554)"> <stop offset="0"/> <stop offset="0.3"/> <stop offset="0.6"/> <stop offset="1"/> </linearGradient><linearGradient id="instagram-SVGID_3_" gradientUnits="userSpaceOnUse" x1="418.31" y1="4.57" x2="418.31" y2="549.72" gradientTransform="matrix(1 0 0 -1 0 554)"> <stop offset="0"/> <stop offset="0.3"/> <stop offset="0.6"/> <stop offset="1"/> </linearGradient></defs><symbol viewBox="0 0 468.7 354.9" id="arrow-down"><title>arrow-down</title> <g> <path d="M234.4,354.9c-9.8,0-19.1-4.8-24.7-12.9L5.3,47.1c-9.4-13.6-6-32.3,7.6-41.7c13.6-9.4,32.3-6,41.7,7.6l179.7,259.3
		L414.1,12.9c9.4-13.6,28.1-17,41.7-7.6c13.6,9.4,17,28.1,7.6,41.7L259,341.9C253.4,350,244.2,354.9,234.4,354.9z"/> </g> </symbol><symbol viewBox="0 0 345.1 345.1" id="audio"><title>audio</title> <path d="M172.5,0C77.4,0,0,77.4,0,172.5c0,95.1,77.4,172.5,172.5,172.5c95.1,0,172.6-77.4,172.6-172.5C345.1,77.4,267.7,0,172.5,0z
	 M144.5,224.4c-4.6,2.9-10.1,2.3-14.2-1.4l-31.2-28c-1.4,0.6-3,1-4.7,1H68.3c-6.2,0-11.2-5-11.2-11.2v-26.2c0-6.2,5-11.2,11.2-11.2
	h26.2c2.1,0,4,0.6,5.6,1.6l30.3-27.2c2.4-2.1,5.2-3.2,8-3.2c2.1,0,4.2,0.6,6.2,1.8c4.6,2.9,7.4,8.7,7.4,15v73.9h0
	C152,215.8,149.1,221.6,144.5,224.4z M186.5,206.8c-2.5,0-4.9-0.9-6.8-2.8c-3.8-3.8-3.8-9.8,0-13.6c4.8-4.8,7.4-11.1,7.4-17.9
	c0-6.7-2.6-13.1-7.4-17.9c-3.8-3.8-3.8-9.8,0-13.6c3.8-3.8,9.8-3.8,13.6,0c8.4,8.4,13,19.6,13,31.4c0,11.9-4.6,23.1-13,31.5
	C191.4,205.9,189,206.8,186.5,206.8z M215.4,227.1c-2.5,0-4.9-0.9-6.8-2.8c-3.8-3.8-3.8-9.8,0-13.6c21-21,21-55.2,0-76.3
	c-3.8-3.8-3.8-9.8,0-13.6s9.8-3.8,13.6,0c28.5,28.5,28.5,74.9,0,103.5C220.3,226.2,217.8,227.1,215.4,227.1z M251,250.7
	c-1.9,1.9-4.3,2.8-6.8,2.8c-2.5,0-4.9-0.9-6.8-2.8c-3.8-3.8-3.8-9.8,0-13.6c17.3-17.3,26.7-40.2,26.7-64.6
	c0-24.4-9.5-47.4-26.8-64.6c-3.8-3.8-3.8-9.8,0-13.6c3.8-3.8,9.8-3.8,13.6,0c20.9,20.9,32.4,48.7,32.4,78.2
	C283.4,202.1,271.9,229.9,251,250.7z"/> </symbol><symbol viewBox="0 0 329 52.3" id="chicago-tribune-logo"><title>chicago-tribune-logo</title> <style type="text/css"> .st0{fill:#FFFFFF;} </style> <path class="st0" d="M70.3,6.3l-3.8,3.9l-3.9-3.7l3.9-4.2L70.3,6.3 M93.3,15.7c-0.2,2.6-2.2,5.3-5,5.3c-2.6,0-4.2-1.6-5.1-3.5
	l-0.3,0.2V36l5.1,3.1l2.8-2.9l0.4,0.4l-6.7,6.9l-9.3-5.6v-0.2c1-0.3,1.4-1.3,1.4-2.8V20.8c3.9-2,8.2-4.7,10.8-6.6
	c0.5,0.8,1.7,1.9,3.2,1.9c1.2,0,2.2-0.3,2.7-0.6L93.3,15.7L93.3,15.7z M74.4,37.8l-5.6,5.8c-3.1-1.1-4.9-2.6-4.9-6.5V19.9l-1.7-1.2
	l-1.6,1.6l-0.4-0.4l5.5-5.7l5.8,3.8v0.1c-0.9,0.5-1.3,1-1.3,2.9v15.3c0,1.3,0.8,2.6,2.2,2.8l1.7-1.7L74.4,37.8L74.4,37.8z
	 M61.4,37.9l-5.5,5.6c-2.9-0.9-4.8-2.7-4.8-6.3V21.1l-3.5-2.4l-2,2.1v17.5l2,1.3l-4.6,4l-5.2-4.3v-0.1c0.9-0.2,1.4-1,1.4-3V6.3
	c0-2.2-0.4-2.8-0.8-3.6l0.3-0.1c1,0.8,1.6,1.5,1.8,3h0.1c1.4-2.3,3.2-3.9,6.5-4.3l0.1,0.2c-0.9,1.2-1.7,2.4-1.7,4.4v14.2l5.4-5.7
	c2,1.3,5.7,4,7.8,5.3v0.1c-0.8,0.3-1.3,0.9-1.3,2.8v13.2c0,1.9,0.5,2.6,2,3.4l1.6-1.6L61.4,37.9L61.4,37.9z M160.1,19.7
	c-0.9,0.4-1.4,0.9-1.4,3v14.1c-2.6,1.1-8.5,4.5-11.4,6.8c-3.2-2.1-4.8-3.3-8.1-5.4v-0.1c0.9-0.4,1.4-0.9,1.4-3.1V21
	c4-1.9,8.3-4.6,11.4-6.9c1.9,1.3,6,3.9,8.2,5.4L160.1,19.7L160.1,19.7z M152.4,39.5V21.4c-1.5-0.9-3.9-2.8-4.9-3.5l-0.6,0.4v18.2
	c0.7,0.5,3.2,2.2,4.8,3.4L152.4,39.5L152.4,39.5z M137.2,41.5c0,1.7-2.4,3.5-5,5.6c-3.4,2.8-5.2,4.1-5.2,4.1c-1.7-1-2.7-1.2-5.2-1.2
	c-3.2,0-4.9,0.3-7.2,1.2l-0.1,0c1.8-3.3,5.3-6.1,10.3-6.1c2.2,0,4.7,0.9,6.4,2c0.4-0.3,1.8-1.3,1.8-2c0-2.2-4.2-2-4.8-6.1l-4.7,4.8
	c-5.5-3.5-8.6-5.5-8.6-5.5v-0.2c1.1-0.5,1.3-1,1.3-3.7V21c4.6-2.4,8.9-4.9,11.5-6.9l8.1,5.4v0.1c-1,0.5-1.4,1-1.4,3.4v12.5
	C134.7,38.5,137.2,38.8,137.2,41.5L137.2,41.5z M128.3,38.1V21.3c-2.4-1.5-4.8-3.4-4.8-3.4l-0.7,0.4v18l4.4,3L128.3,38.1L128.3,38.1
	z M113.9,37.9l-5.5,5.6c-2.5-0.8-4.7-2.2-4.8-5.7l-6.2,5.7c-3.1-1.3-5.2-4.1-5.2-7.5c0-4.7,3.8-7.1,7.2-8.3v0
	c-3-1.5-5.4-4.2-6.1-7.5l9.6-5.9l8.6,5.8v0.1c-1,0.4-1.5,1-1.5,2.9v12.8c0,1.4,0.6,3,2.1,3.4l1.6-1.6L113.9,37.9L113.9,37.9z
	 M103.5,26.7v-5.2l-5.4-3.7l-0.7,0.4c0.2,3.1,0.7,7.1,2.7,9.2C100.9,27.1,102.7,26.8,103.5,26.7L103.5,26.7z M103.5,37.1v-9.8
	c-3.8,0.5-5.9,3.1-5.9,6.5c0,2.8,1,4.5,3.5,5.5L103.5,37.1L103.5,37.1z M37.4,2.6c-0.2,3.8-2.8,7.3-7.6,7.3c-0.6,0-1.2-0.1-1.7-0.2
	v30c3.1-0.4,5.8-1.7,8.4-3.5l0.2,0.7c-2.8,3.3-8.2,8.7-16.4,8.7C9.1,45.6,0.9,38,0.9,25c0-11.9,9.8-18.6,16.2-21l0.5,0.3
	c-6,4-9.3,8.8-9.3,17.2c0,7.4,2.7,12.7,6.7,15.8l1.4-0.9v-23c0-2.1-0.3-2.8-1.3-3.1V10c4-2,10.4-5.5,13.9-8.2
	c1.1,1.3,2.5,1.8,4.1,1.8c1.9,0,3.1-0.7,3.9-1.3L37.4,2.6L37.4,2.6z M27.4,39.9V9.5c-1.6-0.6-2.7-1.9-3.7-3.3l-0.2,0.1v26.1
	l-7.9,5.3c2.7,1.9,6.7,2.2,10.7,2.2C26.7,39.9,27.1,39.9,27.4,39.9L27.4,39.9z M307.7,38l-5.5,5.6c-3.5-1.1-4.9-3.2-4.9-6.4V21
	l-2.9-2.1l-2.6,2.7v16.9l2.1,1.3l-4.6,4l-5.1-4.3v-0.1c1.1-0.5,1.4-1.1,1.4-3.1V21.7c0-1.6-0.8-2.8-2.3-3l-1.7,1.7l-0.4-0.4l5.6-5.7
	c3.3,0.8,5.1,3,5.1,6.3l6-6.3c2,1.5,4.9,3.5,7.1,4.8v0.1c-0.9,0.4-1.2,1-1.2,2.9v13.8c0,1.9,0.6,2.7,2.1,3.3l1.6-1.6L307.7,38
	L307.7,38z M282.3,38.1l-5.4,5.6c-2.7-0.5-5-3-5-5.7l-6.4,5.7c-2.5-1.7-4.8-3.3-6.9-4.5V39c1.2-0.6,1.4-1,1.4-3.2V21.5
	c0-1.5-0.7-2.4-2-2.8l-1.5,1.6l-0.4-0.4l5.4-5.6c2.7,0.9,4.9,3,4.9,6.3v16.7l3,2l2.5-2.3V19.6l-1.8-1.3l4.4-4l5.1,4.1v0.1
	c-1,0.5-1.3,1-1.3,2.8v14.2c0,2.2,0.3,3,2.1,3.8l1.4-1.6L282.3,38.1L282.3,38.1z M229.4,6.4l-3.8,3.9l-3.9-3.7l3.9-4.1L229.4,6.4
	 M233.5,37.9l-5.6,5.8c-3.1-1.1-4.9-2.6-4.9-6.5V20l-1.7-1.2l-1.6,1.6l-0.4-0.4l5.5-5.7l5.8,3.8v0.1c-0.9,0.5-1.3,0.9-1.3,2.2v15.9
	c0,1.3,0.8,2.6,2.2,2.8l1.7-1.7L233.5,37.9L233.5,37.9z"/> <path class="st0" d="M219.9,16.1c-0.3,2.2-2,5.1-4.8,5.1c-1.8,0-3.2-1-3.9-2.2l-0.5,0.5c0,0.2,0,0.8,0,1v16l4.8,2.7l1.6-1.7l0.4,0.4
	l-5.7,5.8l-8.7-5.5V38c1-0.4,1.3-1,1.3-2.5V22.2c0-2.2-0.5-3.2-2.3-3.6l-1.7,1.7l-0.4-0.4l5.5-5.7c2.7,0.7,4.5,2.3,4.9,4.5l4.3-4.5
	c0.8,1.1,1.8,1.9,3,1.9c0.8,0,1.4-0.1,1.9-0.4L219.9,16.1L219.9,16.1z"/> <path class="st0" d="M203.4,2.4c-0.6,4.8-2.6,9.1-7.7,9.1c-0.6,0-1.5-0.1-1.9-0.1V40c3.1-0.4,6.7-1.9,8.2-3.1l0.2,0.6
	c-2.3,3.3-8.8,8.5-16.8,8.5c-10.1,0-17.9-6.6-17.9-17.4c0-9.2,7.6-15.9,12.6-17.7l0.4,0.2c-3.5,3.2-5.9,7.5-5.9,14.3
	c0,5.7,2.2,9.2,5.5,12l1.9-1V18.9c0-1.9-0.6-2.5-1.3-2.6v-0.2l8.4-4.4v21.7l-8.5,4.3c2.3,1.8,5.9,2.7,9.3,2.7c1.2,0,1.7,0,3.1-0.3
	V11.4c-6.3-0.5-13-3.2-18.1-3.2c-3.6,0-6.3,1.5-6.3,4.2c0,1.7,1.3,2.4,2.1,2.8l-0.7,0.4c-1.5-0.7-3.4-2.4-3.4-5.9
	c0-5.1,4.1-8.5,9.7-8.5c7.7,0,14.9,4.1,21.7,4.1c2.1,0,4-1.1,5-3.1L203.4,2.4L203.4,2.4z M327.4,22.6c-3.6,2.2-8,5.1-11.3,7.5v6.2
	l5.4,3l3-3.1l0.4,0.3l-6.9,7.2l-9.6-5.8v-0.1c1-0.3,1.5-0.9,1.5-3V21.1c3.9-1.7,8-4.6,11-6.9L327.4,22.6L327.4,22.6z M321.5,25.6
	c-0.9-1.3-3.8-5.6-5.1-7.5l-0.3,0.2v11L321.5,25.6L321.5,25.6z M255.4,19.8c-1.1,0.4-1.3,1.3-1.3,2.7V37c-2.6,1.1-8.5,4.3-11.5,6.7
	c-2.1-1.5-5.5-3.8-8.2-5.4v-0.1c1.2-0.5,1.4-1.2,1.4-3.5V6.6c0-2-0.4-3-0.8-3.8l0.3-0.1c0.9,0.8,1.5,1.7,1.8,3h0.1
	c1.4-2.3,3.2-3.8,6.6-4.3l0,0.3c-0.9,1.2-1.6,2.2-1.6,4.4V20l5.4-5.7c1.9,1.4,5.7,4.1,7.8,5.4L255.4,19.8L255.4,19.8z M247.7,39.6
	V21.2l-3.5-2.4l-2,2v15.5l4.8,3.5L247.7,39.6L247.7,39.6z"/> </symbol><symbol viewBox="0 0 505 505" id="close"><title>close</title> <g> <path d="M431.044,73.955C383.354,26.265,319.945,0,252.5,0S121.646,26.265,73.956,73.955C26.265,121.646,0,185.055,0,252.5
		s26.265,130.854,73.956,178.545C121.646,478.735,185.055,505,252.5,505s130.854-26.265,178.544-73.955
		C478.735,383.354,505,319.945,505,252.5S478.735,121.646,431.044,73.955z M368.908,429.031l-117.9-117.9L138.579,423.56
		l-58.134-58.133l112.43-112.429L75.968,136.091l60.123-60.123l116.907,116.907L365.427,80.446l58.134,58.133l-112.43,112.429
		l117.901,117.9L368.908,429.031z"/> </g> </symbol><symbol viewBox="0 0 14 14" id="email"><title>email</title> <g> <g> <path d="M7,9L5.268,7.484l-4.952,4.245C0.496,11.896,0.739,12,1.007,12h11.986
			c0.267,0,0.509-0.104,0.688-0.271L8.732,7.484L7,9z"/> <path d="M13.684,2.271C13.504,2.103,13.262,2,12.993,2H1.007C0.74,2,0.498,2.104,0.318,2.273L7,8
			L13.684,2.271z"/> <polygon points="0,2.878 0,11.186 4.833,7.079 		"/> <polygon points="9.167,7.079 14,11.186 14,2.875 		"/> </g> </g>                </symbol><symbol viewBox="0 0 408.788 408.788" id="facebook"><title>facebook</title> <path d="M353.701,0H55.087C24.665,0,0.002,24.662,0.002,55.085v298.616c0,30.423,24.662,55.085,55.085,55.085
	h147.275l0.251-146.078h-37.951c-4.932,0-8.935-3.988-8.954-8.92l-0.182-47.087c-0.019-4.959,3.996-8.989,8.955-8.989h37.882
	v-45.498c0-52.8,32.247-81.55,79.348-81.55h38.65c4.945,0,8.955,4.009,8.955,8.955v39.704c0,4.944-4.007,8.952-8.95,8.955
	l-23.719,0.011c-25.615,0-30.575,12.172-30.575,30.035v39.389h56.285c5.363,0,9.524,4.683,8.892,10.009l-5.581,47.087
	c-0.534,4.506-4.355,7.901-8.892,7.901h-50.453l-0.251,146.078h87.631c30.422,0,55.084-24.662,55.084-55.084V55.085
	C408.786,24.662,384.124,0,353.701,0z"/>                </symbol><symbol viewBox="0 0 112.2 112.2" id="google"><title>google</title><path d="M56.1,0a56.1,56.1,0,1,0,56.1,56.1A56.1,56.1,0,0,0,56.1,0Zm4,71.83c-5.73,7.38-16.32,9.54-24.94,6.65A23.26,23.26,0,0,1,19.77,60.2a21.45,21.45,0,0,1-.24-3.59,20,20,0,0,1,.3-4.28C21.63,42.17,31,33.64,41.46,33.52a23.09,23.09,0,0,1,16.61,5.7h0c-1.89,2.07-3.81,4.13-5.87,6.05-4.05-2.47-8.93-4.34-13.67-2.68-7.64,2.18-12.27,11.2-9.44,18.68a13,13,0,0,0,2.95,5.13,14.68,14.68,0,0,0,16.33,3.68c3.85-1.38,6.39-4.93,7.51-8.75-4.42-.09-8.84,0-13.25-.16h0q0-3.95,0-7.87c7.37,0,14.75,0,22.12,0h0C65.2,59.77,64.25,66.66,60.06,71.83ZM92.32,53.32V59.9h0l-6.6,0c0,2.21,0,4.41,0,6.62H79.09c0-2.21,0-4.41,0-6.61l-6.61,0h0V53.32h0l6.61,0c0-2.19,0-4.4,0-6.6h6.57c0,2.2,0,4.41,0,6.6l6.6,0Z"/></symbol><symbol viewBox="0 0 551.034 551.034" id="instagram"><title>instagram</title> <g>  <path d="M386.878,0H164.156C73.64,0,0,73.64,0,164.156v222.722
		c0,90.516,73.64,164.156,164.156,164.156h222.722c90.516,0,164.156-73.64,164.156-164.156V164.156
		C551.033,73.64,477.393,0,386.878,0z M495.6,386.878c0,60.045-48.677,108.722-108.722,108.722H164.156
		c-60.045,0-108.722-48.677-108.722-108.722V164.156c0-60.046,48.677-108.722,108.722-108.722h222.722
		c60.045,0,108.722,48.676,108.722,108.722L495.6,386.878L495.6,386.878z"/>  <path d="M275.517,133C196.933,133,133,196.933,133,275.516s63.933,142.517,142.517,142.517
		S418.034,354.1,418.034,275.516S354.101,133,275.517,133z M275.517,362.6c-48.095,0-87.083-38.988-87.083-87.083
		s38.989-87.083,87.083-87.083c48.095,0,87.083,38.988,87.083,87.083C362.6,323.611,323.611,362.6,275.517,362.6z"/>  <circle cx="418.31" cy="134.07" r="34.15"/> </g>                </symbol><symbol viewBox="0 0 505 505" id="link"><title>link</title> <g> <path d="M431.044,73.955C383.354,26.265,319.945,0,252.5,0S121.646,26.265,73.956,73.955C26.265,121.646,0,185.055,0,252.5
		s26.265,130.854,73.956,178.545C121.646,478.735,185.055,505,252.5,505s130.854-26.265,178.544-73.955
		C478.735,383.354,505,319.945,505,252.5S478.735,121.646,431.044,73.955z M345.5,326.5c-31.657,0-58.723-19.987-69.272-48H309.5
		c0.168,0,0.333-0.01,0.5-0.013c0.209-0.004,0.418-0.007,0.625-0.016c0.203-0.009,0.404-0.022,0.605-0.035
		c7.859,10.359,20.294,17.064,34.269,17.064c23.71,0,43-19.29,43-43s-19.29-43-43-43c-13.975,0-26.411,6.705-34.269,17.064
		c-0.201-0.013-0.402-0.027-0.605-0.035c-0.208-0.009-0.416-0.012-0.625-0.016c-0.167-0.003-0.333-0.013-0.5-0.013h-33.272
		c10.549-28.013,37.615-48,69.272-48c40.804,0,74,33.196,74,74S386.304,326.5,345.5,326.5z M272.749,268.5h-0.521h-39.456h-0.521
		h-0.513h-31.252h-0.549h-0.537H187.5c-8.837,0-16-7.163-16-16s7.163-16,16-16h11.901h0.537h0.549h31.252h0.513h0.521h39.456h0.521
		h0.513h31.252h0.549h0.537h3.901c8.837,0,16,7.163,16,16s-7.163,16-16,16h-3.901h-0.537h-0.549h-31.252H272.749z M159.5,326.5
		c-40.804,0-74-33.196-74-74s33.196-74,74-74c31.657,0,58.723,19.987,69.272,48h-33.782h-0.636h-0.635
		c-7.862-10.322-20.273-17-34.219-17c-23.71,0-43,19.29-43,43s19.29,43,43,43c13.946,0,26.358-6.678,34.219-17h0.635h0.636h33.782
		C218.223,306.513,191.157,326.5,159.5,326.5z"/> </g> </symbol><symbol viewBox="0 0 650.2 650.2" id="quote"><title>quote</title> <g> <path d="M325.1,0.5C145.8,0.5,0.5,145.8,0.5,325.1s145.3,324.6,324.6,324.6s324.6-145.3,324.6-324.6S504.4,0.5,325.1,0.5z
		 M214.8,469c-54.1,0-98.1-43.9-98.1-98.1c0-0.1,0-0.2,0-0.3c0,0-12-158.3,181.7-189.2c0,0-79.7,32.4-110.2,95.1
		c8.5-2.4,17.4-3.7,26.6-3.7c54.2,0,98.1,43.9,98.1,98.1C312.9,425,268.9,469,214.8,469z M435.6,469c-54.2,0-98.1-43.9-98.1-98.1
		c0-0.1,0-0.2,0-0.3c0,0-12-158.3,181.7-189.2c0,0-79.7,32.4-110.2,95.1c8.5-2.4,17.4-3.7,26.6-3.7c54.2,0,98.1,43.9,98.1,98.1
		C533.7,425,489.8,469,435.6,469z"/> </g> </symbol><symbol viewBox="0 0 165.6 174.6" id="triangle-down"><title>triangle-down</title><polygon points="165.6 0 82.8 174.6 0 0 165.6 0"/></symbol><symbol viewBox="0 0 165.6 174.6" id="triangle-up"><title>triangle-up</title><polygon points="0 174.6 82.8 0 165.6 174.6 0 174.6"/></symbol><symbol viewBox="0 0 410.155 410.155" id="twitter"><title>twitter</title> <path d="M403.632,74.18c-9.113,4.041-18.573,7.229-28.28,9.537c10.696-10.164,18.738-22.877,23.275-37.067
	l0,0c1.295-4.051-3.105-7.554-6.763-5.385l0,0c-13.504,8.01-28.05,14.019-43.235,17.862c-0.881,0.223-1.79,0.336-2.702,0.336
	c-2.766,0-5.455-1.027-7.57-2.891c-16.156-14.239-36.935-22.081-58.508-22.081c-9.335,0-18.76,1.455-28.014,4.325
	c-28.672,8.893-50.795,32.544-57.736,61.724c-2.604,10.945-3.309,21.9-2.097,32.56c0.139,1.225-0.44,2.08-0.797,2.481
	c-0.627,0.703-1.516,1.106-2.439,1.106c-0.103,0-0.209-0.005-0.314-0.015c-62.762-5.831-119.358-36.068-159.363-85.14l0,0
	c-2.04-2.503-5.952-2.196-7.578,0.593l0,0C13.677,65.565,9.537,80.937,9.537,96.579c0,23.972,9.631,46.563,26.36,63.032
	c-7.035-1.668-13.844-4.295-20.169-7.808l0,0c-3.06-1.7-6.825,0.485-6.868,3.985l0,0c-0.438,35.612,20.412,67.3,51.646,81.569
	c-0.629,0.015-1.258,0.022-1.888,0.022c-4.951,0-9.964-0.478-14.898-1.421l0,0c-3.446-0.658-6.341,2.611-5.271,5.952l0,0
	c10.138,31.651,37.39,54.981,70.002,60.278c-27.066,18.169-58.585,27.753-91.39,27.753l-10.227-0.006
	c-3.151,0-5.816,2.054-6.619,5.106c-0.791,3.006,0.666,6.177,3.353,7.74c36.966,21.513,79.131,32.883,121.955,32.883
	c37.485,0,72.549-7.439,104.219-22.109c29.033-13.449,54.689-32.674,76.255-57.141c20.09-22.792,35.8-49.103,46.692-78.201
	c10.383-27.737,15.871-57.333,15.871-85.589v-1.346c-0.001-4.537,2.051-8.806,5.631-11.712c13.585-11.03,25.415-24.014,35.16-38.591
	l0,0C411.924,77.126,407.866,72.302,403.632,74.18L403.632,74.18z"/>                </symbol></svg>