<?xml version="1.0" encoding="utf-8"?>
<!-- Generator: Adobe Illustrator 22.0.1, SVG Export Plug-In . SVG Version: 6.00 Build 0)  -->
<svg version="1.1" id="Layer_1" xmlns="http://www.w3.org/2000/svg" xmlns:xlink="http://www.w3.org/1999/xlink" x="0px" y="0px"
	 viewBox="0 0 171.3 171.3" style="enable-background:new 0 0 171.3 171.3;" xml:space="preserve">
<g>
	<path d="M85.7,2.3c-46,0-83.3,37.3-83.3,83.3c0,46,37.3,83.3,83.3,83.3c46,0,83.3-37.3,83.3-83.3C169,39.6,131.7,2.3,85.7,2.3z
		 M72.1,131c-15-15-30.2-30.2-45-45c5-5.1,11.1-11.1,17.6-17.6c8.5,8.6,17.4,17.5,26.6,26.7c18.3-18.4,36.6-36.8,54.6-54.8
		c6.5,6.6,12.6,12.7,18.3,18.4C120.2,82.9,95.9,107.2,72.1,131z"/>
</g>
</svg>
