<?xml version="1.0" encoding="utf-8"?>
<!-- Generator: Adobe Illustrator 22.0.1, SVG Export Plug-In . SVG Version: 6.00 Build 0)  -->
<svg version="1.1" id="Layer_1" xmlns="http://www.w3.org/2000/svg" xmlns:xlink="http://www.w3.org/1999/xlink" x="0px" y="0px"
	 viewBox="0 0 200 200" style="enable-background:new 0 0 200 200;" xml:space="preserve">
<g id="OCivvt_1_">
	<g>
		<path d="M90,0c6.7,0,13.3,0,20,0c0.9,0.3,1.8,0.7,2.8,0.9c40.4,5.4,73.1,33.9,83.7,73.2c1.4,5.2,2.3,10.6,3.5,15.9
			c0,6.7,0,13.3,0,20c-0.3,0.9-0.8,1.8-0.9,2.8c-5.2,40-33.3,72.6-72.2,83.4c-5.5,1.5-11.2,2.5-16.9,3.8c-6.7,0-13.3,0-20,0
			c-0.9-0.3-1.8-0.8-2.8-0.9c-41.5-5.4-74.8-35.4-84.5-76.1c-1-4.3-1.9-8.7-2.8-13c0-6.7,0-13.3,0-20c0.3-0.9,0.8-1.8,0.9-2.8
			C6.2,46,36.1,12.6,76.5,2.9C80.9,1.8,85.5,1,90,0z M56.5,80.9c-7,7-13.5,13.4-18.9,18.9c15.9,15.9,32.2,32.2,48.3,48.3
			c25.6-25.6,51.7-51.7,77.5-77.6c-6.2-6.2-12.7-12.7-19.7-19.8c-19.3,19.4-38.9,39.1-58.6,58.9C75.2,99.7,65.6,90.1,56.5,80.9z"/>
	</g>
</g>
</svg>
