<?xml version="1.0" encoding="utf-8"?>
<!-- Generator: Adobe Illustrator 22.0.1, SVG Export Plug-In . SVG Version: 6.00 Build 0)  -->
<svg version="1.1" id="Layer_1" xmlns="http://www.w3.org/2000/svg" xmlns:xlink="http://www.w3.org/1999/xlink" x="0px" y="0px"
	 viewBox="0 0 619 619" style="enable-background:new 0 0 619 619;" xml:space="preserve">
<style type="text/css">
	.st0{fill:#FFFFFF;}
</style>
<circle cx="309.5" cy="309.5" r="309.5"/>
<path class="st0" d="M439.7,131.3H179.3c-26.5,0-48,21.5-48,48v260.3c0,26.5,21.5,48,48,48h128.4l0.2-127.4h-33.1
	c-4.3,0-7.8-3.5-7.8-7.8l-0.2-41.1c0-4.3,3.5-7.8,7.8-7.8h33V264c0-46,28.1-71.1,69.2-71.1h33.7c4.3,0,7.8,3.5,7.8,7.8v34.6
	c0,4.3-3.5,7.8-7.8,7.8l-20.7,0c-22.3,0-26.7,10.6-26.7,26.2v34.3h49.1c4.7,0,8.3,4.1,7.8,8.7l-4.9,41.1c-0.5,3.9-3.8,6.9-7.8,6.9
	h-44l-0.2,127.4h76.4c26.5,0,48-21.5,48-48V179.3C487.7,152.8,466.2,131.3,439.7,131.3z"/>
</svg>
