<?xml version="1.0" encoding="utf-8"?>
<!-- Generator: Adobe Illustrator 22.0.1, SVG Export Plug-In . SVG Version: 6.00 Build 0)  -->
<svg version="1.1" id="Layer_1" xmlns="http://www.w3.org/2000/svg" xmlns:xlink="http://www.w3.org/1999/xlink" x="0px" y="0px"
	 viewBox="0 0 412.6 412" style="enable-background:new 0 0 412.6 412;" xml:space="preserve">
<g id="ioDXOF_1_">
	<g>
		<path d="M325.6,253.7c5.6-26.7,2.6-51.3-8.8-74.8c-1.2-2.6-0.9-4.2,1.1-6.1c8.3-8.2,16.9-16.1,24.6-24.9c3.3-3.8,6.1-9,6.9-13.9
			c1.7-10.8,0.5-21.7-4.1-31.8c-1.9-4.1-4.7-8-7.8-11.4c-4.6-5.2-9.8-10-14.8-14.9c-14.2-13.8-31.4-15.3-49.7-11.5
			c-3,0.6-6,3-8.3,5.3c-27.2,27-54.3,54.1-81.3,81.2c-12.7,12.8-12.7,39.1-0.1,52c5.6,5.7,11.3,11.3,17,17c7.3,7.4,7.4,16,0.2,23.4
			c-7,7.2-14,14.2-21.2,21.2c-7.4,7.2-16,7.2-23.4,0c-6.7-6.5-13.4-13-19.7-19.9c-18-19.5-25.2-43-24.9-69.1
			c0.3-28.1,9.9-52.1,30.3-71.9c25-24.2,49.8-48.7,73.8-73.9C234.7,9.6,257.8,0.4,285,0c26-0.4,50.8,5,71.1,21.8
			c22.2,18.4,43.6,38,51.4,67.7c8.1,30.7,7.7,60.6-8.9,88.7c-2.6,4.4-5.9,8.5-9.5,12.2c-20.2,20.5-40.7,40.9-61.1,61.2
			C327.6,252.1,327.1,252.5,325.6,253.7z"/>
		<path d="M86.7,159c-0.6,6.4-1.2,12.3-1.7,18.2c-1.5,19.4,2.4,37.7,10.8,55.1c1.6,3.3,1.2,5.2-1.4,7.7
			c-6.7,6.3-12.7,13.3-19.6,19.3c-12.3,10.7-13.8,24-10.3,38.6c2.1,8.6,6.2,16,12.7,22.2c6.6,6.3,13.2,12.7,19.4,19.5
			c12.6,13.6,40.2,15.5,54.8,0.1c24.4-25.8,50-50.4,75.1-75.5c13.1-13.1,16.2-28.9,8.6-45.9c-1.7-3.7-4.2-7.2-6.9-10.2
			c-5.1-5.7-10.8-10.8-16.2-16.4c-6.4-6.7-6.5-15.7-0.1-22.4c7.3-7.6,14.7-15,22.3-22.3c5.8-5.6,14.5-6.8,20-1.6
			c12.9,12.3,27.1,23.6,34.8,40.2c18,38.8,17.2,76.6-8,112.4c-2.1,3-4.8,5.5-7.4,8.1c-26.1,26.2-52.4,52.3-78.4,78.5
			c-17.7,17.9-39.4,26-64.1,27.2c-22.7,1.2-44.8-2.3-63.3-15.8c-23.3-17-45.2-36.3-57.3-63.5c-14.3-32.1-14.7-64.5,2.5-96
			c3.1-5.8,7.4-11.2,12-15.9c19.6-20,39.5-39.7,59.3-59.5C85,160.5,85.7,159.9,86.7,159z"/>
	</g>
</g>
</svg>
